<svg xmlns="http://www.w3.org/2000/svg">
	<g id="dribbble">
		<path fill-rule="evenodd" d="M 26.5 0 C 11.89 0 0 11.89 0 26.5 C 0 41.11 11.89 53 26.5 53 C 41.11 53 53 41.11 53 26.5 C 53 11.89 41.11 0 26.5 0 L 26.5 0 Z M 46.38 26.5 C 46.38 27.19 46.34 27.86 46.27 28.53 C 43.12 27.53 39.83 27 36.44 27 C 35.89 27 35.27 27.08 34.71 27.12 C 34.24 25.37 33.64 23.66 32.91 21.99 C 36.51 20.15 39.77 17.74 42.54 14.81 C 44.94 18.1 46.38 22.13 46.38 26.5 L 46.38 26.5 Z M 38.6 10.77 C 36.22 13.34 33.38 15.45 30.25 17.04 C 27.83 13.3 24.71 10.02 21.1 7.39 C 22.83 6.9 24.63 6.63 26.5 6.63 C 31.05 6.63 35.25 8.19 38.6 10.77 L 38.6 10.77 Z M 15.08 10.26 C 18.94 12.49 22.28 15.55 24.83 19.2 C 19.33 20.75 13.47 20.73 8.05 19.15 C 9.49 15.55 11.95 12.46 15.08 10.26 L 15.08 10.26 Z M 6.63 26.5 C 6.63 25.87 6.66 25.24 6.72 24.62 C 9.9 25.52 13.19 26 16.56 26 C 20.35 26 24.07 25.38 27.65 24.22 C 28.18 25.42 28.62 26.63 28.99 27.88 C 21.92 29.53 15.66 33.46 11.13 39.08 C 8.31 35.65 6.63 31.27 6.63 26.5 L 6.63 26.5 Z M 15.27 42.88 C 19.01 38.11 24.24 34.78 30.15 33.38 C 30.25 34.37 30.31 35.39 30.31 36.44 C 30.31 39.84 29.73 43.13 28.64 46.26 C 27.94 46.33 27.23 46.38 26.5 46.38 C 22.33 46.38 18.47 45.08 15.27 42.88 L 15.27 42.88 Z M 35.01 44.43 C 35.61 41.83 35.94 39.17 35.94 36.44 C 35.94 35.15 35.86 33.89 35.74 32.67 C 35.96 32.67 36.22 32.63 36.44 32.63 C 39.37 32.63 42.2 33.09 44.9 33.99 C 43.02 38.58 39.47 42.3 35.01 44.43 L 35.01 44.43 Z M 35.01 44.43" />
	</g>
</svg>