<svg xmlns="http://www.w3.org/2000/svg">
	<g id="facebook">
    	<path fill-rule="evenodd" d="M 27.06 10 L 29.81 10 C 31.81 10 32.01 8.62 32.01 7.93 L 32.01 1.93 C 32.01 1.24 31.81 0 29.81 0 L 24.19 0 C 16.79 0 10.01 5.83 10.01 12.55 L 10.01 22 L 1.81 22 C -0.19 22 0.01 23.24 0.01 23.93 L 0.01 31.93 C 0.01 32.62 -0.19 34 1.81 34 L 10.01 34 L 10.01 58.13 C 10.01 59.38 9.81 60 11.81 60 L 17.81 60 C 19.81 60 20.01 59.19 20.01 57.93 L 20.01 34 L 28.48 34 C 29.04 34 29.54 33.1 29.69 32.57 L 32.57 24.3 C 32.68 23.92 32.61 23.17 32.37 22.85 C 32.13 22.54 31.76 22 31.37 22 L 20.01 22 L 20.01 14.7 C 20.01 12.45 24.33 10 27.06 10" />
    </g>
</svg>