<svg xmlns="http://www.w3.org/2000/svg">
	<g id="flickr">
		<path fill-rule="evenodd" d="M 30.71 0.84 C 14.16 0.84 0.71 14.3 0.71 30.84 C 0.71 47.38 14.16 60.84 30.71 60.84 C 47.25 60.84 60.71 47.38 60.71 30.84 C 60.71 14.3 47.25 0.84 30.71 0.84 L 30.71 0.84 Z M 18.2 40.99 C 12.69 40.99 8.2 36.51 8.2 30.99 C 8.2 25.48 12.69 20.99 18.2 20.99 C 23.71 20.99 28.2 25.48 28.2 30.99 C 28.2 36.51 23.71 40.99 18.2 40.99 L 18.2 40.99 Z M 43.2 40.99 C 37.68 40.99 33.2 36.51 33.2 30.99 C 33.2 25.48 37.68 20.99 43.2 20.99 C 48.71 20.99 53.2 25.48 53.2 30.99 C 53.2 36.51 48.71 40.99 43.2 40.99 L 43.2 40.99 Z M 43.2 40.99" />
	</g>
    
</svg>