<svg xmlns="http://www.w3.org/2000/svg">
	<g id="instagram">
		<path fill-rule="evenodd" d="M 5 0 L 2.5 0 C 1.12 0 0 1.12 0 2.5 L 0 37.5 C 0 38.88 1.12 40 2.5 40 L 37.5 40 C 38.88 40 40 38.88 40 37.5 L 40 2.5 C 40 1.12 38.88 0 37.5 0 L 5 0 L 5 0 Z M 20 15 C 22.76 15 25 17.24 25 20 C 25 22.76 22.76 25 20 25 C 17.24 25 15 22.76 15 20 C 15 17.24 17.24 15 20 15 L 20 15 Z M 35 35 L 5 35 L 5 20 L 10 20 C 10 25.52 14.49 30 20 30 C 25.51 30 30 25.52 30 20 L 35 20 L 35 35 L 35 35 Z M 27.5 5 L 35 5 L 35 12.5 L 27.5 12.5 L 27.5 5 Z M 27.5 5" />
	</g>
    
</svg>