<svg xmlns="http://www.w3.org/2000/svg">
	<g id="linkedin">
	  	<path fill-rule="evenodd" d="M 0.23 15.47 L 11.6 15.47 L 11.6 58 L 0.23 58 L 0.23 15.47 Z M 0.23 15.47" />
	  	<path fill-rule="evenodd" d="M 42.53 15.47 C 35.35 15.47 32.56 19.33 30.8 23.2 L 30.93 15.47 L 19.45 15.47 C 19.63 19.33 19.33 58 19.33 58 L 30.93 58 L 30.93 35.4 C 30.93 34.2 31 32.99 31.33 32.13 C 32.3 29.72 35.23 27.21 38.92 27.21 C 43.74 27.21 46.4 30.93 46.4 36.35 L 46.4 58 L 58 58 L 58 34.79 C 58 22.4 51.26 15.47 42.53 15.47" />
	  	<path fill-rule="evenodd" d="M 11.6 5.8 C 11.6 9 9 11.6 5.8 11.6 C 2.6 11.6 0 9 0 5.8 C 0 2.6 2.6 0 5.8 0 C 9 0 11.6 2.6 11.6 5.8" />
  	</g>
</svg>