<svg xmlns="http://www.w3.org/2000/svg">
	<g id="phone">
    	<path stroke-linejoin="miter" stroke-linecap="butt" stroke-width="1" fill-rule="evenodd" d="M 15.95 45.47 C 15.95 46.49 15.19 47.25 14.17 47.25 C 13.16 47.25 12.39 46.49 12.39 45.47 C 12.39 44.45 13.16 43.69 14.17 43.69 C 15.19 43.69 15.95 44.45 15.95 45.47 L 15.95 45.47 Z M 26.35 5.24 L 26.35 47.25 C 26.35 49.15 24.83 50.8 22.93 50.8 L 5.67 50.8 C 3.76 50.8 2.24 49.28 2.24 47.25 L 2.24 19.33 C 1.61 19.33 1.1 18.82 1.1 18.19 L 1.1 15.9 C 1.1 15.27 1.61 14.76 2.24 14.76 L 2.24 13.62 C 1.61 13.62 1.1 13.11 1.1 12.48 L 1.1 10.19 C 1.1 9.56 1.61 9.05 2.24 9.05 L 2.24 5.5 C 2.24 3.59 3.76 1.94 5.67 1.94 L 18.36 1.94 C 18.36 1.31 18.87 0.8 19.5 0.8 L 22.93 0.8 C 23.56 0.8 24.07 1.31 24.07 1.94 L 24.07 2.2 C 25.34 2.32 26.35 3.72 26.35 5.24 L 26.35 5.24 Z M 4.4 40.14 L 24.07 40.14 L 24.07 12.22 L 4.4 12.22 L 4.4 40.14 L 4.4 40.14 Z M 4.4 5.24 L 4.4 9.94 L 24.07 9.94 L 24.07 5.24 C 24.07 4.61 23.56 4.1 22.93 4.1 L 5.67 4.1 C 4.91 4.1 4.4 4.61 4.4 5.24 L 4.4 5.24 Z M 24.07 47.12 L 24.07 42.42 L 4.4 42.42 L 4.4 47.12 C 4.4 47.75 4.91 48.26 5.54 48.26 L 22.8 48.26 C 23.56 48.39 24.07 47.88 24.07 47.12 L 24.07 47.12 Z M 24.07 47.12" />
    </g>
</svg>