<svg xmlns="http://www.w3.org/2000/svg">
	<g id="pinterest">
		<path fill-rule="evenodd" d="M 11.76 24.9 C 10.8 30.08 9.62 35.05 6.12 37.65 C 5.04 29.81 7.71 23.93 8.94 17.68 C 6.83 14.05 9.2 6.74 13.64 8.54 C 19.11 10.76 8.91 22.05 15.76 23.46 C 22.91 24.93 25.83 10.75 21.4 6.14 C 14.99 -0.52 2.74 5.99 4.24 15.52 C 4.61 17.85 6.96 18.56 5.18 21.77 C 1.08 20.84 -0.14 17.53 0.01 13.11 C 0.27 5.89 6.36 0.83 12.47 0.13 C 20.2 -0.76 27.45 3.03 28.45 10.47 C 29.57 18.87 24.96 27.96 16.7 27.31 C 14.46 27.13 13.52 25.99 11.76 24.9" />
	</g>
</svg>