<svg xmlns="http://www.w3.org/2000/svg">
	<g id="skype">
  <path fill-rule="evenodd" d="M 47.47 30.91 C 47.83 29.26 48.01 27.54 48.01 25.76 C 48.01 12.52 37.58 1.78 24.7 1.78 C 23.34 1.78 22.01 1.9 20.71 2.13 C 18.63 0.78 16.17 0 13.52 0 C 6.06 0 0 6.23 0 13.91 C 0 16.48 0.69 18.88 1.86 20.95 C 1.55 22.5 1.39 24.11 1.39 25.76 C 1.39 39.01 11.82 49.75 24.7 49.75 C 26.16 49.75 27.58 49.61 28.97 49.35 C 30.87 50.4 33.04 51 35.36 51 C 42.83 51 48.88 44.77 48.88 37.09 C 48.88 34.87 48.37 32.77 47.47 30.91 L 47.47 30.91 Z M 36.66 37.23 C 35.58 38.8 33.99 40.04 31.93 40.93 C 29.88 41.8 27.42 42.24 24.63 42.24 C 21.29 42.24 18.48 41.64 16.29 40.44 C 14.72 39.58 13.44 38.39 12.45 36.94 C 11.46 35.47 10.96 34.01 10.96 32.61 C 10.96 31.73 11.29 30.97 11.93 30.34 C 12.57 29.72 13.38 29.41 14.36 29.41 C 15.17 29.41 15.86 29.66 16.42 30.14 C 16.95 30.62 17.41 31.3 17.79 32.2 C 18.2 33.17 18.65 33.99 19.13 34.64 C 19.58 35.27 20.24 35.79 21.08 36.2 C 21.93 36.61 23.06 36.82 24.47 36.82 C 26.39 36.82 27.97 36.39 29.16 35.56 C 30.32 34.74 30.88 33.77 30.88 32.57 C 30.88 31.62 30.59 30.87 29.99 30.29 C 29.35 29.68 28.51 29.2 27.5 28.88 C 26.44 28.54 25 28.17 23.22 27.79 C 20.8 27.26 18.75 26.63 17.11 25.91 C 15.44 25.17 14.09 24.16 13.1 22.89 C 12.1 21.6 11.6 19.99 11.6 18.09 C 11.6 16.28 12.13 14.64 13.18 13.23 C 14.23 11.84 15.75 10.75 17.71 10 C 19.64 9.27 21.94 8.89 24.55 8.89 C 26.63 8.89 28.46 9.14 29.99 9.63 C 31.52 10.12 32.82 10.78 33.84 11.61 C 34.86 12.42 35.62 13.31 36.1 14.22 C 36.58 15.15 36.83 16.07 36.83 16.96 C 36.83 17.82 36.51 18.6 35.87 19.27 C 35.24 19.96 34.43 20.3 33.48 20.3 C 32.62 20.3 31.94 20.09 31.47 19.66 C 31.03 19.26 30.58 18.65 30.08 17.75 C 29.5 16.62 28.79 15.72 27.99 15.09 C 27.21 14.48 25.9 14.17 24.1 14.17 C 22.42 14.17 21.07 14.51 20.06 15.19 C 19.09 15.85 18.62 16.6 18.62 17.49 C 18.62 18.04 18.76 18.5 19.08 18.89 C 19.41 19.31 19.88 19.67 20.47 19.97 C 21.08 20.29 21.71 20.54 22.34 20.73 C 22.99 20.91 24.08 21.18 25.57 21.53 C 27.45 21.96 29.19 22.42 30.72 22.92 C 32.27 23.43 33.62 24.07 34.72 24.8 C 35.83 25.54 36.71 26.5 37.34 27.65 C 37.97 28.8 38.29 30.22 38.29 31.88 C 38.29 33.85 37.74 35.65 36.66 37.23 L 36.66 37.23 Z M 36.66 37.23" />
  </g>
</svg>