<svg xmlns="http://www.w3.org/2000/svg">
	<g id="tumblr">
    	<path fill-rule="evenodd" d="M 34.21 52.63 C 33.8 51.44 33.24 49.59 32.73 47.93 C 32.31 46.51 31.91 45.23 31.7 44.61 C 31.59 44.28 31.35 44.03 31.04 43.88 C 30.74 43.74 30.38 43.73 30.07 43.85 C 28.65 44.4 27.24 44.68 26.17 44.68 C 22.55 44.68 22 41.27 22 40.97 L 22 26 L 29.8 26 C 31.8 26 32 24.88 32 24.19 L 32 15.93 C 32 15.24 31.8 14 29.8 14 L 22 14 L 22 1.69 C 22 1 21.74 0 21.05 0 L 12.05 0 C 11.36 0 10.8 0.78 10.8 1.47 C 10.8 8.09 3.17 13.94 0.71 14.86 C 0.22 15.04 0 15.61 0 16.14 L 0 24.19 C 0 24.88 0.36 26 1.05 26 L 4 26 L 4 42.03 C 4 54.44 16.94 57.16 21.77 57.16 C 23.64 57.16 29.53 57.16 33.59 54.03 C 34.01 53.7 34.38 53.14 34.21 52.63" />
    </g>
</svg>