<svg xmlns="http://www.w3.org/2000/svg">
	<g id="vimeo">
		<path fill-rule="evenodd" d="M 53.26 2.05 C 51.5 0.71 49.36 0 47.08 0 C 41.21 0 33.87 4.87 31.65 15.55 C 31.55 16 31.71 16.47 32.06 16.76 C 32.41 17.06 32.89 17.14 33.32 16.98 C 35.48 16.15 36.95 16.24 37.69 17.39 C 38.63 18.84 38.39 21.66 37.8 22.96 C 36.8 25.2 33.9 29.18 31.41 31.79 C 29.88 30.08 29.11 24.95 28.42 20.37 C 27.13 11.8 25.67 2.09 18.69 1.44 C 12.84 1.44 4.09 10.09 0.29 14.66 C -0.06 15.09 -0.1 15.69 0.21 16.15 C 0.27 16.24 1.67 18.36 3.12 20.06 C 3.34 20.32 3.65 20.47 3.99 20.49 C 4.34 20.51 4.66 20.38 4.91 20.16 C 6.89 18.35 7.95 18.06 8.41 18.06 C 9.3 18.06 9.85 19.2 10.54 20.85 L 10.67 21.11 C 11.74 23.67 12.65 27.78 13.62 31.7 C 16.02 41.38 18.73 52.86 25.61 52.86 L 25.65 52.86 C 35.97 52.86 45.67 38.92 52.07 28.65 C 57.61 19.75 60.34 7.43 53.26 2.05" />
	</g>
</svg>