<svg xmlns="http://www.w3.org/2000/svg">
	<g id="vine">
    	<path fill-rule="evenodd" d="M 45.73 25.61 C 37.85 25.61 34.41 24.45 30.77 17.92 C 28.56 13.96 29.12 10.34 30.27 8.44 C 30.82 7.52 31.84 6.43 33.55 6.43 C 36.09 6.43 38.79 6.89 38.79 12.91 C 38.81 13.2 38.88 15.9 38.36 19.14 L 44.96 19.14 C 45.44 15.9 45.34 13.02 45.33 12.75 C 45.33 4.64 41.03 0 33.55 0 C 29.87 0 26.62 1.89 24.65 5.17 C 21.94 9.65 22.09 15.72 25.04 21 C 27.91 26.16 31.1 28.94 34.96 30.44 C 32.63 35.35 28.89 40.4 22.87 44.29 C 6.53 33.46 6.53 6.67 6.53 6.39 L 0 6.33 C -0.01 7.66 -0.05 38.9 21.25 50.86 L 22.88 51.78 L 24.51 50.84 C 33.47 45.71 38.56 38.57 41.47 31.85 C 42.82 31.96 44.22 32.03 45.73 32.03 L 45.73 25.61" />
    </g>
</svg>